<mxfile host="app.diagrams.net" modified="2021-03-16T14:54:05.055Z" agent="5.0 (Windows NT 10.0; Win64; x64) AppleWebKit/537.36 (KHTML, like Gecko) Chrome/89.0.4389.82 Safari/537.36" etag="opInpbjFvMWx6ptrQF-n" version="14.4.8" type="github">
  <diagram id="C5RBs43oDa-KdzZeNtuy" name="Page-1">
    <mxGraphModel dx="1221" dy="645" grid="0" gridSize="10" guides="1" tooltips="1" connect="1" arrows="1" fold="1" page="1" pageScale="1" pageWidth="827" pageHeight="1169" background="#FFFFFF" math="0" shadow="1">
      <root>
        <mxCell id="WIyWlLk6GJQsqaUBKTNV-0" />
        <mxCell id="WIyWlLk6GJQsqaUBKTNV-1" parent="WIyWlLk6GJQsqaUBKTNV-0" />
        <mxCell id="0_0dadyRX7Vl8BMTg-1B-29" style="edgeStyle=none;rounded=0;orthogonalLoop=1;jettySize=auto;html=1;entryX=0.5;entryY=0;entryDx=0;entryDy=0;labelBackgroundColor=none;startArrow=none;startFill=0;fontSize=14;" edge="1" parent="WIyWlLk6GJQsqaUBKTNV-1" source="0_0dadyRX7Vl8BMTg-1B-0" target="0_0dadyRX7Vl8BMTg-1B-16">
          <mxGeometry relative="1" as="geometry" />
        </mxCell>
        <mxCell id="0_0dadyRX7Vl8BMTg-1B-0" value="START" style="strokeWidth=2;html=1;shape=mxgraph.flowchart.start_2;whiteSpace=wrap;fillColor=#1ba1e2;strokeColor=#006EAF;fontColor=#ffffff;" vertex="1" parent="WIyWlLk6GJQsqaUBKTNV-1">
          <mxGeometry x="375" y="40" width="76" height="70" as="geometry" />
        </mxCell>
        <mxCell id="0_0dadyRX7Vl8BMTg-1B-25" value="" style="edgeStyle=none;rounded=0;orthogonalLoop=1;jettySize=auto;html=1;labelBackgroundColor=none;startArrow=none;startFill=0;fontSize=14;" edge="1" parent="WIyWlLk6GJQsqaUBKTNV-1" source="0_0dadyRX7Vl8BMTg-1B-16" target="0_0dadyRX7Vl8BMTg-1B-23">
          <mxGeometry relative="1" as="geometry" />
        </mxCell>
        <mxCell id="0_0dadyRX7Vl8BMTg-1B-16" value="&lt;span style=&quot;font-weight: normal&quot;&gt;INITILIZING&lt;/span&gt;" style="swimlane;fontStyle=1;align=center;verticalAlign=top;childLayout=stackLayout;horizontal=1;startSize=26;horizontalStack=0;resizeParent=1;resizeParentMax=0;resizeLast=0;collapsible=1;marginBottom=0;strokeColor=#82b366;strokeWidth=1;fillColor=#d5e8d4;fontSize=14;html=1;" vertex="1" parent="WIyWlLk6GJQsqaUBKTNV-1">
          <mxGeometry x="289" y="160" width="250" height="90" as="geometry">
            <mxRectangle x="310" y="160" width="110" height="26" as="alternateBounds" />
          </mxGeometry>
        </mxCell>
        <mxCell id="0_0dadyRX7Vl8BMTg-1B-19" value="Entry /  Set motor direction down&#xa;Do    /   Set all orders to zero &#xa;Do    /   Ignore all attempts to make an order&#xa;Exit  /   Arrived at a floor&#xa;" style="text;strokeColor=none;fillColor=none;align=left;verticalAlign=top;spacingLeft=4;spacingRight=4;overflow=hidden;rotatable=0;points=[[0,0.5],[1,0.5]];portConstraint=eastwest;" vertex="1" parent="0_0dadyRX7Vl8BMTg-1B-16">
          <mxGeometry y="26" width="250" height="64" as="geometry" />
        </mxCell>
        <mxCell id="0_0dadyRX7Vl8BMTg-1B-28" value="Button press event on different floor" style="edgeStyle=orthogonalEdgeStyle;rounded=0;orthogonalLoop=1;jettySize=auto;html=1;labelBackgroundColor=none;startArrow=none;startFill=0;fontSize=12;verticalAlign=bottom;" edge="1" parent="WIyWlLk6GJQsqaUBKTNV-1" source="0_0dadyRX7Vl8BMTg-1B-23" target="0_0dadyRX7Vl8BMTg-1B-26">
          <mxGeometry relative="1" as="geometry" />
        </mxCell>
        <mxCell id="0_0dadyRX7Vl8BMTg-1B-35" value="&lt;font style=&quot;font-size: 12px&quot;&gt;No further orders&lt;/font&gt;" style="rounded=0;orthogonalLoop=1;jettySize=auto;html=1;entryX=0;entryY=0;entryDx=0;entryDy=0;labelBackgroundColor=none;startArrow=classic;startFill=1;fontSize=14;exitX=1.004;exitY=1.031;exitDx=0;exitDy=0;exitPerimeter=0;endArrow=none;endFill=0;align=left;horizontal=1;" edge="1" parent="WIyWlLk6GJQsqaUBKTNV-1" source="0_0dadyRX7Vl8BMTg-1B-24" target="0_0dadyRX7Vl8BMTg-1B-30">
          <mxGeometry relative="1" as="geometry" />
        </mxCell>
        <mxCell id="0_0dadyRX7Vl8BMTg-1B-23" value="&lt;span style=&quot;font-weight: normal&quot;&gt;IDLE&lt;/span&gt;" style="swimlane;fontStyle=1;align=center;verticalAlign=top;childLayout=stackLayout;horizontal=1;startSize=26;horizontalStack=0;resizeParent=1;resizeParentMax=0;resizeLast=0;collapsible=1;marginBottom=0;strokeColor=#82b366;strokeWidth=1;fillColor=#d5e8d4;fontSize=14;html=1;" vertex="1" parent="WIyWlLk6GJQsqaUBKTNV-1">
          <mxGeometry x="308" y="320" width="210" height="100" as="geometry">
            <mxRectangle x="310" y="160" width="110" height="26" as="alternateBounds" />
          </mxGeometry>
        </mxCell>
        <mxCell id="0_0dadyRX7Vl8BMTg-1B-24" value="Entry     /   Stop motor.&#xa;Do       /    Clear all orders and lights &#xa;                 if stop button was pressed." style="text;strokeColor=none;fillColor=none;align=left;verticalAlign=top;spacingLeft=4;spacingRight=4;overflow=hidden;rotatable=0;points=[[0,0.5],[1,0.5]];portConstraint=eastwest;" vertex="1" parent="0_0dadyRX7Vl8BMTg-1B-23">
          <mxGeometry y="26" width="210" height="74" as="geometry" />
        </mxCell>
        <mxCell id="0_0dadyRX7Vl8BMTg-1B-32" value="Arrived at desired floor" style="edgeStyle=none;rounded=0;orthogonalLoop=1;jettySize=auto;html=1;labelBackgroundColor=none;startArrow=none;startFill=0;fontSize=12;verticalAlign=bottom;" edge="1" parent="WIyWlLk6GJQsqaUBKTNV-1" source="0_0dadyRX7Vl8BMTg-1B-26" target="0_0dadyRX7Vl8BMTg-1B-30">
          <mxGeometry y="5" relative="1" as="geometry">
            <mxPoint x="-1" as="offset" />
          </mxGeometry>
        </mxCell>
        <mxCell id="0_0dadyRX7Vl8BMTg-1B-34" value="&lt;font style=&quot;font-size: 12px&quot;&gt;Stop button pressed in between floors&lt;/font&gt;" style="rounded=0;orthogonalLoop=1;jettySize=auto;html=1;labelBackgroundColor=none;startArrow=none;startFill=0;fontSize=14;entryX=-0.006;entryY=1.002;entryDx=0;entryDy=0;entryPerimeter=0;exitX=1;exitY=0;exitDx=0;exitDy=0;align=left;" edge="1" parent="WIyWlLk6GJQsqaUBKTNV-1" source="0_0dadyRX7Vl8BMTg-1B-26" target="0_0dadyRX7Vl8BMTg-1B-24">
          <mxGeometry relative="1" as="geometry">
            <mxPoint x="360" y="440" as="targetPoint" />
          </mxGeometry>
        </mxCell>
        <mxCell id="0_0dadyRX7Vl8BMTg-1B-26" value="&lt;span style=&quot;font-weight: normal&quot;&gt;MOVING&lt;/span&gt;" style="swimlane;fontStyle=1;align=center;verticalAlign=top;childLayout=stackLayout;horizontal=1;startSize=26;horizontalStack=0;resizeParent=1;resizeParentMax=0;resizeLast=0;collapsible=1;marginBottom=0;strokeColor=#82b366;strokeWidth=1;fillColor=#d5e8d4;fontSize=14;html=1;" vertex="1" parent="WIyWlLk6GJQsqaUBKTNV-1">
          <mxGeometry x="50" y="520" width="180" height="90" as="geometry">
            <mxRectangle x="310" y="160" width="110" height="26" as="alternateBounds" />
          </mxGeometry>
        </mxCell>
        <mxCell id="0_0dadyRX7Vl8BMTg-1B-27" value="Entry     /   Execute order&#xa;Do        /    Update lights &#xa;Exit      /    Clear order&#xa;Exit     /     Clear order lights" style="text;strokeColor=none;fillColor=none;align=left;verticalAlign=top;spacingLeft=4;spacingRight=4;overflow=hidden;rotatable=0;points=[[0,0.5],[1,0.5]];portConstraint=eastwest;" vertex="1" parent="0_0dadyRX7Vl8BMTg-1B-26">
          <mxGeometry y="26" width="180" height="64" as="geometry" />
        </mxCell>
        <mxCell id="0_0dadyRX7Vl8BMTg-1B-33" value="Stop button pressed while at floor /&lt;br&gt;Button press event on current floor" style="edgeStyle=orthogonalEdgeStyle;rounded=0;orthogonalLoop=1;jettySize=auto;html=1;exitX=0.5;exitY=0;exitDx=0;exitDy=0;labelBackgroundColor=none;startArrow=classic;startFill=1;fontSize=12;entryX=1.017;entryY=0.364;entryDx=0;entryDy=0;entryPerimeter=0;endArrow=none;endFill=0;align=left;" edge="1" parent="WIyWlLk6GJQsqaUBKTNV-1" source="0_0dadyRX7Vl8BMTg-1B-30" target="0_0dadyRX7Vl8BMTg-1B-24">
          <mxGeometry x="0.4892" y="-13" relative="1" as="geometry">
            <mxPoint as="offset" />
          </mxGeometry>
        </mxCell>
        <mxCell id="0_0dadyRX7Vl8BMTg-1B-30" value="&lt;span style=&quot;font-weight: normal&quot;&gt;DOOR OPEN&lt;/span&gt;" style="swimlane;fontStyle=1;align=center;verticalAlign=top;childLayout=stackLayout;horizontal=1;startSize=26;horizontalStack=0;resizeParent=1;resizeParentMax=0;resizeLast=0;collapsible=1;marginBottom=0;strokeColor=#82b366;strokeWidth=1;fillColor=#d5e8d4;fontSize=14;html=1;" vertex="1" parent="WIyWlLk6GJQsqaUBKTNV-1">
          <mxGeometry x="613" y="517" width="168" height="96" as="geometry">
            <mxRectangle x="310" y="160" width="110" height="26" as="alternateBounds" />
          </mxGeometry>
        </mxCell>
        <mxCell id="0_0dadyRX7Vl8BMTg-1B-31" value="Entry     /   Open door&#xa;Do        /   Start door timer&#xa;Do       /   Check obstruction&#xa;Exit     /    Close door" style="text;strokeColor=none;fillColor=none;align=left;verticalAlign=top;spacingLeft=4;spacingRight=4;overflow=hidden;rotatable=0;points=[[0,0.5],[1,0.5]];portConstraint=eastwest;" vertex="1" parent="0_0dadyRX7Vl8BMTg-1B-30">
          <mxGeometry y="26" width="168" height="70" as="geometry" />
        </mxCell>
        <mxCell id="0_0dadyRX7Vl8BMTg-1B-36" value="Remaining orders" style="edgeStyle=orthogonalEdgeStyle;rounded=0;orthogonalLoop=1;jettySize=auto;html=1;labelBackgroundColor=none;startArrow=none;startFill=0;endArrow=classic;endFill=1;fontSize=12;curved=1;verticalAlign=bottom;" edge="1" parent="WIyWlLk6GJQsqaUBKTNV-1" source="0_0dadyRX7Vl8BMTg-1B-31" target="0_0dadyRX7Vl8BMTg-1B-27">
          <mxGeometry relative="1" as="geometry">
            <Array as="points">
              <mxPoint x="650" y="650" />
              <mxPoint x="140" y="650" />
            </Array>
          </mxGeometry>
        </mxCell>
      </root>
    </mxGraphModel>
  </diagram>
</mxfile>
